<svg width="400" height="225" viewBox="0 0 400 225" fill="none" xmlns="http://www.w3.org/2000/svg">
  <rect width="400" height="225" fill="#E2E8F0"/>
  <path d="M200 112.5C211.046 112.5 220 103.546 220 92.5C220 81.4543 211.046 72.5 200 72.5C188.954 72.5 180 81.4543 180 92.5C180 103.546 188.954 112.5 200 112.5Z" fill="#94A3B8"/>
  <path d="M144 152.5C144 134.551 158.551 120 176.5 120H223.5C241.449 120 256 134.551 256 152.5V152.5C256 152.5 250.5 162.5 200 162.5C149.5 162.5 144 152.5 144 152.5V152.5Z" fill="#94A3B8"/>
  <path d="M183.393 92.8571C183.393 91.2779 185.219 90.2447 186.566 91.0893L214.566 108.375C215.912 109.219 215.912 111.281 214.566 112.125L186.566 129.411C185.219 130.255 183.393 129.222 183.393 127.643V92.8571Z" fill="#475569"/>
</svg>
