<svg width="120" height="45" viewBox="0 0 120 45" fill="none" xmlns="http://www.w3.org/2000/svg">
  <path d="M35.1 18.5C35.1 13.3 30.9 9 25.7 9C20.5 9 16.3 13.2 16.3 18.4C16.3 23.6 20.5 27.8 25.7 27.8C30.9 27.9 35.1 23.7 35.1 18.5ZM25.7 25.8C21.6 25.8 18.3 22.5 18.3 18.4C18.3 14.3 21.6 11 25.7 11C29.8 11 33.1 14.3 33.1 18.4C33.1 22.5 29.8 25.8 25.7 25.8Z" fill="white"/>
  <path d="M119.3 35.9H0.9V36.9H119.3V35.9Z" fill="white"/>
  <path d="M5.6 42.4C6.9 42.4 8 41.3 8 40C8 38.7 6.9 37.6 5.6 37.6C4.3 37.6 3.2 38.7 3.2 40C3.2 41.3 4.3 42.4 5.6 42.4Z" fill="white"/>
  <path d="M46 18.8C46 13.8 41.8 9.7 36.8 9.7C31.8 9.7 27.6 13.9 27.6 18.9C27.6 23.9 31.8 28.1 36.8 28.1C41.8 28 46 23.8 46 18.8ZM36.8 26C32.9 26 29.7 22.8 29.7 18.9C29.7 15 32.9 11.8 36.8 11.8C40.7 11.8 43.9 15 43.9 18.9C43.9 22.8 40.7 26 36.8 26Z" fill="white"/>
  <path d="M68.5 21.7C68.5 21.7 67.5 25.8 62.7 25.8C58.4 25.8 55.2 22.3 55.2 18.5C55.2 14.2 58.6 11.2 62.7 11.2C67.5 11.2 68.6 15.3 68.6 15.3H70.6C70.6 15.3 69.3 9.2 62.7 9.2C57.4 9.2 53.2 13.4 53.2 18.5C53.2 23.7 57.5 27.8 62.7 27.8C65.1 27.8 66.9 27.1 68.2 26.3C70.3 24.9 70.7 21.7 70.7 21.7H68.5Z" fill="white"/>
  <path d="M72 27.3H74V15.9C74 15.9 74.8 14 76.6 14C77.6 14 77.8 14.5 77.8 14.5V12.4C77.8 12.4 77.4 12 76.7 12C75 12 74 13.6 74 13.6V12.4H72V27.3Z" fill="white"/>
  <path d="M83.8 27.8C86.2 27.8 88.1 26.3 88.1 26.3V27.3H90.1V12.4H88.1V23.4C88.1 23.4 86.5 25.8 84.2 25.8C82.3 25.8 81.1 24.5 81.1 22.3V12.4H79.1V22.8C79.1 25.8 81 27.8 83.8 27.8Z" fill="white"/>
  <path d="M98.7 27.8C101.1 27.8 103 26.3 103 26.3V27.3H105V9.3H103V13.4C103 13.4 101.4 12 99.1 12C95.3 12 92.6 15.3 92.6 19.8C92.6 24.4 95.3 27.8 98.7 27.8ZM99.1 25.8C96.5 25.8 94.6 23.3 94.6 19.9C94.6 16.6 96.5 14 99.1 14C101.6 14 103 16.2 103 16.2V23.5C103 23.5 101.5 25.8 99.1 25.8Z" fill="white"/>
  <path d="M113.2 27.8C115.8 27.8 117.3 26.2 117.3 26.2V27.3H119.3V18.6C119.3 15.4 117.3 12 113.3 12C109.2 12 107.4 15.3 107.4 15.3L108.9 16.4C108.9 16.4 110.4 14 113.2 14C116.1 14 117.3 16.3 117.3 18.4C117.3 18.4 115.6 17.3 113.1 17.3C109.8 17.3 107.4 19.2 107.4 22.5C107.4 25.2 109.4 27.8 113.2 27.8ZM113.3 25.8C111 25.8 109.4 24.2 109.4 22.6C109.4 20.5 111.1 19.3 113.2 19.3C115.6 19.3 117.3 20.5 117.3 20.5V22.5C117.3 22.5 115.6 25.8 113.3 25.8Z" fill="white"/>
  <path d="M42.7 44.2H44.2V41.1H47.6V39.8H44.2V37.9H48.1V36.6H42.7V44.2Z" fill="white"/>
  <path d="M54 44.2H55.4L52.3 40.5L55.2 36.6H53.8L51.5 39.8H50.2V36.6H48.8V44.2H50.2V41.1H51.5L54 44.2Z" fill="white"/>
  <path d="M61.5 44.2H63V36.6H61.5V44.2Z" fill="white"/>
  <path d="M70.2 44.2H71.6V37.9H74V36.6H67.8V37.9H70.2V44.2Z" fill="white"/>
  <path d="M79.3 44.2H80.7V37.9H83.1V36.6H76.9V37.9H79.3V44.2Z" fill="white"/>
  <path d="M91.4 44.2H92.9V36.6H91.4V44.2Z" fill="white"/>
  <path d="M101.6 44.2H103V36.6H101.6V44.2Z" fill="white"/>
  <path d="M112.6 44.2H114.1V36.6H112.6V44.2Z" fill="white"/>
</svg>